<svg width="1920" height="786" viewBox="0 0 1920 786" fill="none" xmlns="http://www.w3.org/2000/svg">
<g clip-path="url(#clip0_1105_22259)">
<mask id="mask0_1105_22259" style="mask-type:alpha" maskUnits="userSpaceOnUse" x="0" y="0" width="1920" height="786">
<path d="M1920 0H0V786H1920V0Z" fill="white"/>
</mask>
<g mask="url(#mask0_1105_22259)">
<path d="M1920 0H0V786H1920V0Z" fill="white"/>
<path d="M2132.98 -353.219H-177.465V1030.47H2132.98V-353.219Z" fill="#0B0E11"/>
<mask id="mask1_1105_22259" style="mask-type:alpha" maskUnits="userSpaceOnUse" x="-447" y="104" width="1086" height="1076">
<path fill-rule="evenodd" clip-rule="evenodd" d="M-260.804 862.467C-225.909 895.173 -181.873 916.161 -140.155 920.023C-132.815 920.667 -125.476 920.925 -118.265 920.925H-116.849C-86.0753 920.925 -58.7779 915.259 -35.601 904.186C-11.2651 892.469 9.3367 874.442 25.6893 850.492C48.9951 816.886 53.5018 788.558 39.0805 766.154C24.5095 743.019 4.10201 736.379 -17.4819 729.355L-17.9607 729.2C-41.2664 721.731 -65.216 713.877 -83.1138 684.262C-85.4315 680.27 -89.6806 672.802 -90.8395 666.879C-93.2859 653.874 -97.02 637.779 -110.411 611.254C-118.265 595.159 -130.111 583.571 -144.79 577.648C-152.902 574.429 -162.301 572.755 -172.474 572.755C-178.783 572.755 -185.478 573.399 -192.689 574.557C-230.03 581.124 -264.666 604.172 -287.457 638.165C-311.407 673.703 -320.935 717.869 -314.497 762.677C-312.694 775.553 -309.475 788.172 -304.84 800.276C-296.342 821.907 -281.019 843.411 -260.804 862.467ZM-172.345 580.223C-146.593 580.223 -129.081 591.168 -117.364 614.473C-104.488 640.097 -100.882 655.677 -98.4363 668.167C-96.5049 678.596 -83.6289 705.379 -56.7178 721.474C-44.8718 728.556 -32.5107 732.547 -20.5359 736.41L-20.1021 736.552C-7.25617 740.748 4.94751 744.735 15.3884 752.248C30.8398 763.321 39.7243 778.515 39.5955 794.095C39.4668 821.65 16.5473 854.999 -6.24341 875.858C-33.7983 900.838 -71.3965 913.457 -117.879 913.457C-124.961 913.457 -132.171 913.199 -139.511 912.555C-178.654 909.336 -221.918 888.734 -255.267 857.446C-274.839 839.033 -289.517 818.302 -297.629 797.572C-302.007 785.983 -305.226 773.88 -306.9 761.647C-320.935 665.077 -257.842 593.357 -191.401 582.283C-184.577 580.738 -178.139 580.223 -172.345 580.223Z" fill="#FC5050"/>
<path fill-rule="evenodd" clip-rule="evenodd" d="M-61.4812 638.163C-59.9361 646.275 -57.1034 653.872 -52.8543 660.954C-30.0636 699.969 0.710411 708.596 30.4542 716.836L30.511 716.852C47.1002 721.482 62.7896 725.86 77.1944 735.12C99.3414 749.155 112.605 770.916 112.862 793.32C112.862 814.309 104.106 837.099 85.9502 862.98C56.979 905.214 20.6683 930.451 -28.3897 942.297C-48.7339 947.061 -70.8808 949.636 -92.2551 949.636C-123.672 949.636 -153.416 944.228 -178.267 934.056C-198.869 925.816 -218.44 915 -236.467 901.866C-262.605 882.938 -283.593 861.306 -299.045 837.614C-315.655 811.991 -325.827 783.663 -329.175 753.662C-332.265 726.751 -330.72 699.84 -324.282 673.444C-318.23 648.851 -308.315 625.802 -294.409 604.685C-281.404 584.728 -265.18 567.345 -245.995 553.181C-218.955 532.837 -184.834 520.733 -154.832 520.733C-121.869 520.733 -97.6631 536.313 -82.9843 567.216C-67.1359 600.575 -64.1009 620.866 -61.6643 637.157L-61.61 637.52L-61.4812 638.163ZM-155.09 528.588C-163.846 528.588 -173.374 529.875 -183.417 532.193C-275.224 558.46 -333.295 651.297 -321.707 753.018C-320.033 768.212 -316.427 783.277 -311.148 797.698C-283.722 870.963 -196.808 935.344 -117.363 941.138C-108.865 941.782 -100.366 942.039 -92.2551 942.039C-33.7976 942.039 13.2002 926.459 47.5794 895.557C76.2931 869.29 105.265 827.571 105.136 793.449C105.136 774.006 93.0321 754.692 72.9453 741.687C59.5685 733.07 44.3929 728.82 28.3169 724.319L28.2652 724.305L26.3981 723.767C11.7774 719.562 -3.3822 715.201 -17.8313 707.051C-43.4547 692.501 -64.5715 664.688 -69.0782 639.451L-69.3357 637.777C-71.6534 622.197 -74.6149 602.754 -89.9375 570.693C-103.199 542.751 -125.088 528.588 -155.09 528.588Z" fill="#FC5050"/>
<path fill-rule="evenodd" clip-rule="evenodd" d="M79.1766 704.555C98.0089 709.295 117.463 714.191 134.624 724.564C161.535 740.402 178.274 766.669 178.531 792.936C178.66 817.658 168.101 844.827 146.34 875.73C109.901 927.363 69.341 955.433 10.6259 969.596C-14.3537 975.519 -40.106 978.481 -65.8582 978.481H-68.0471C-101.009 978.352 -128.951 975.391 -166.292 960.583C-241.746 930.324 -333.552 855.772 -343.725 745.166C-349.519 684.648 -334.583 623.229 -301.877 572.111C-281.147 539.534 -253.72 512.623 -222.302 494.339C-194.489 478.115 -164.488 469.102 -137.706 469.102C-125.474 469.102 -114.272 470.905 -104.486 474.639C-83.1121 482.751 -66.6307 499.232 -55.4286 523.697C-37.6448 562.186 -34.7736 586.138 -32.4742 605.321L-32.3803 606.104C-31.0927 617.177 -28.9037 626.706 -22.4657 637.908C5.08921 686.065 42.5586 695.464 78.8693 704.477L79.1766 704.555ZM170.805 792.936C170.676 769.244 155.611 746.196 130.632 731.131C114.28 721.216 96.1233 716.71 76.9379 712.074C58.2675 707.439 39.0821 702.675 20.9268 692.631C-10.7484 675.249 -35.5993 641.513 -39.5909 610.739L-39.8484 608.422L-39.8954 608.031C-42.3301 587.78 -45.11 564.658 -62.3816 527.045C-67.4033 515.714 -74.3564 505.67 -83.2409 497.172C-97.2759 483.91 -116.59 476.957 -138.993 476.957C-182.515 476.957 -233.376 503.095 -271.618 545.2C-320.29 598.765 -343.209 669.583 -335.998 744.522C-324.538 868.261 -199.64 962.643 -94.7007 969.854C-85.8161 970.498 -76.9316 970.755 -68.1759 970.755C-18.9891 970.755 50.5418 961.098 101.66 915.388C129.601 890.408 171.191 837.101 170.805 792.936Z" fill="#FC5050"/>
<path fill-rule="evenodd" clip-rule="evenodd" d="M7.79285 614.858C1.99861 604.428 -1.47794 593.097 -2.63678 581.251C-2.70118 580.35 -2.79774 579.448 -2.89429 578.547C-2.99088 577.646 -3.08745 576.744 -3.15182 575.843C-5.212 553.181 -7.91598 524.854 -28.0027 480.045C-40.75 451.589 -59.6779 432.532 -84.4 423.261C-95.4735 419.141 -107.835 416.952 -120.969 416.952C-176.723 416.952 -256.683 454.808 -309.475 539.404C-327.373 567.86 -340.764 598.763 -349.134 631.339C-377.719 741.816 -341.537 822.936 -306.256 871.478C-277.929 910.236 -239.3 943.714 -194.234 968.307C-153.417 990.582 -109.896 1004.1 -71.5239 1006.29L-70.1075 1006.42C-60.9655 1006.94 -51.8235 1007.19 -42.9389 1007.19C16.1624 1007.19 99.5995 995.733 160.889 941.009C176.727 926.846 191.792 909.592 206.986 888.346C232.48 852.422 244.712 821.004 244.326 792.419C244.197 776.066 238.79 760.486 228.36 746.065C201.191 709.111 165.653 700.999 128.184 692.501L128.165 692.496C84.779 682.583 40.236 672.405 7.79285 614.858ZM236.472 792.419C236.729 819.33 225.012 849.203 200.547 883.84C185.74 904.699 171.061 921.438 155.61 935.215C96.123 988.265 14.746 999.467 -43.0677 999.467C-52.7248 999.467 -62.5106 999.209 -72.4252 998.566C-182.002 991.613 -300.848 901.737 -337.545 798.213C-362.138 728.039 -355.443 645.632 -319.003 571.98C-285.397 503.866 -229.901 453.005 -166.937 432.403C-150.326 427.124 -134.746 424.549 -120.454 424.549H-120.325C-96.1173 424.549 -75.6443 432.274 -59.5491 447.34C-49.7633 456.482 -41.3938 468.585 -34.9557 483.264C-15.384 526.914 -12.8089 554.34 -10.7487 576.487C-10.6843 577.453 -10.5877 578.386 -10.4912 579.32C-10.3946 580.253 -10.298 581.187 -10.2336 582.152C-7.78723 607.39 7.27783 634.944 31.0987 657.864C59.9317 684.895 93.2684 692.496 125.448 699.833L125.48 699.84L126.367 700.044C148.442 705.117 169.254 709.901 188.186 720.828C218.059 737.696 236.214 764.607 236.472 792.419Z" fill="#FC5050"/>
<path fill-rule="evenodd" clip-rule="evenodd" d="M304.585 763.965C307.804 772.849 309.607 782.378 309.736 791.906C309.993 809.933 305.744 829.376 297.246 849.849C290.293 865.944 280.507 882.683 267.502 900.967C250.119 925.303 232.994 944.874 214.968 960.969C145.179 1023.03 50.0256 1036.04 -17.574 1036.04C-28.2611 1035.91 -39.3347 1035.65 -50.2794 1035.01C-93.4144 1032.43 -142.344 1017.24 -188.183 992.001C-238.658 964.188 -282.179 926.333 -313.854 882.554C-353.77 827.444 -394.33 735.509 -361.367 610.353C-351.839 573.656 -336.774 538.891 -316.816 506.7C-290.42 463.823 -255.654 427.77 -216.253 402.404C-180.973 379.613 -143.117 366.351 -109.639 365.063C-107.579 364.934 -105.648 364.934 -103.588 364.934C-90.1963 364.934 -76.9328 367.252 -64.1855 371.759C-50.4081 377.038 -37.5319 385.279 -27.2311 395.837C-16.5439 406.782 -7.53065 420.43 -0.448792 436.526C21.8269 487.257 24.2733 519.061 26.2047 544.556C26.3287 545.921 26.423 547.255 26.5161 548.575C26.6162 549.994 26.715 551.395 26.8485 552.797C28.1361 567.733 31.7414 580.223 38.1794 591.811C75.3914 658.767 126.895 669.712 176.726 680.27L176.898 680.307C219.584 689.436 260.076 698.095 291.323 739.5C296.86 746.968 301.366 755.209 304.585 763.965ZM302.139 791.906C301.624 759.845 280.636 729.328 245.742 710.143C223.595 697.911 199.516 692.889 174.022 687.61C136.938 679.755 98.6973 671.643 65.6056 640.612C52.6008 628.38 41.3986 613.572 31.3552 595.545C20.7968 576.489 19.5092 559.75 18.6078 547.518L18.4791 545.457L18.4507 545.087C16.5245 520.041 14.1231 488.817 -7.53067 439.616C-26.7161 395.837 -60.1939 372.66 -104.102 372.66C-121.228 372.66 -139.898 376.137 -159.727 382.961C-310.506 435.367 -405.146 641.127 -350.68 798.602C-304.583 931.612 -158.697 1020.84 -50.0219 1027.41C-39.3347 1028.05 -28.5187 1028.31 -18.0891 1028.31C48.2229 1028.31 141.574 1015.69 209.56 955.175C227.2 939.466 243.939 920.281 260.935 896.46C289.134 856.802 302.525 822.68 302.139 791.906Z" fill="#FC5050"/>
<path fill-rule="evenodd" clip-rule="evenodd" d="M55.5626 513.909C55.6913 517.514 55.9488 520.862 56.2064 524.21C57.494 541.85 61.228 555.499 68.5674 568.761C110.672 645.116 168.872 656.834 225.269 668.036L225.737 668.13C273.721 677.752 319.123 686.856 354.546 732.932C360.855 741.301 365.877 750.443 369.611 760.229C373.345 770.272 375.405 780.831 375.534 791.518C375.92 811.733 371.027 833.623 361.112 856.413C353.387 874.44 342.442 893.11 327.763 913.712C308.192 941.009 289.006 963.028 268.791 980.925C190.633 1050.33 83.5037 1064.88 7.40585 1064.88H7.01953C-4.4402 1064.88 -16.1573 1064.49 -28.0034 1063.85C-93.6715 1060.11 -167.581 1031.14 -230.545 984.402C-244.837 973.843 -258.615 962.384 -271.62 950.28C-318.489 906.501 -352.868 854.997 -371.281 801.304C-392.784 738.34 -393.814 663.143 -373.985 589.234C-363.169 548.674 -346.558 509.789 -324.54 473.993C-303.81 440 -278.186 409.355 -248.314 383.088C-218.956 357.464 -187.281 338.15 -154.447 326.047C-133.716 318.321 -113.887 313.943 -95.3454 313.042C-92.6415 312.913 -89.9376 312.784 -87.2336 312.784C-72.426 312.784 -58.0047 315.359 -44.0985 320.252C-28.5184 325.918 -14.226 335.317 -2.63754 347.163C9.33723 359.396 19.2519 374.718 27.1063 392.745C51.5125 449.393 53.7493 485.025 55.5496 513.703L55.5626 513.909ZM-27.6172 1056.12C-15.8999 1056.77 -4.05388 1057.15 7.40585 1057.15C82.0873 1057.15 187.156 1042.86 263.511 975.002C283.212 957.491 302.14 935.988 321.325 909.077C353.129 864.397 368.323 825.897 367.808 791.389C367.164 755.207 343.086 720.828 303.299 699.582C278.465 686.397 251.594 680.975 223.068 675.219L222.183 675.041C164.745 663.476 105.296 651.507 61.743 572.238C50.1636 551.266 48.9975 532.609 47.968 516.137L47.9657 516.098L47.8369 514.166L47.8205 513.912C46.0208 486.013 43.7726 451.163 19.8957 395.835C-1.34993 346.648 -38.6908 320.639 -88.1349 320.639C-107.835 320.639 -129.339 324.888 -151.872 333.257C-289.389 384.118 -389.436 553.567 -379.65 719.025C-374.886 801.819 -335.871 879.719 -267.113 944.229C-198.355 1008.74 -106.548 1051.62 -27.6172 1056.12Z" fill="#FC5050"/>
<path fill-rule="evenodd" clip-rule="evenodd" d="M85.5635 495.627C86.4648 510.048 88.7825 527.302 98.6971 545.457C145.695 631.341 211.363 643.831 275.1 655.806L275.485 655.879C328.779 666.024 379.232 675.628 417.639 726.109C424.721 735.251 430.386 745.423 434.506 756.239C438.755 767.442 440.944 779.03 441.202 790.876C441.588 813.281 436.309 837.488 425.236 862.725C416.609 882.683 404.376 903.413 388.152 926.204C366.392 956.463 345.017 980.799 322.742 1000.63C281.538 1037.2 229.004 1063.46 166.812 1078.53C125.48 1088.57 80.2843 1093.59 32.3852 1093.59C-20.0206 1093.59 -61.4817 1089.09 -118.651 1066.55C-158.052 1050.97 -195.135 1030.24 -229.128 1005C-244.708 993.546 -259.773 981.056 -273.937 967.794C-326.085 918.993 -364.327 861.566 -384.543 801.563C-407.977 732.805 -408.621 650.011 -386.474 568.377C-374.628 523.697 -356.344 480.948 -332.266 441.418C-309.604 403.82 -281.663 369.956 -249.086 340.599C-217.025 311.885 -182.517 290.253 -146.721 276.347C-123.673 267.462 -101.655 262.312 -80.9246 261.024L-80.5521 261.01C-77.3377 260.886 -74.2382 260.767 -71.1387 260.767C-54.3998 260.767 -38.5622 263.471 -24.0122 268.75C-6.75823 275.059 9.07935 285.489 21.8267 298.622C34.9604 312.142 46.0338 329.139 54.5321 349.097C81.1466 411.666 83.2206 451.094 84.8882 482.796L84.9197 483.395C85.0484 487.129 85.3059 491.507 85.5635 495.627ZM360.855 689.026C333.043 674.605 302.913 668.811 271.109 662.759L271.094 662.756C206.847 650.525 140.541 637.901 92.1303 548.934C79.383 525.886 78.3529 504.898 77.4515 486.356L77.3228 484.038C75.7776 452.749 73.7175 413.735 47.4502 351.93C38.4369 330.813 26.5909 313.301 12.2984 299.91C-10.2348 278.922 -38.1759 268.235 -71.1387 268.235C-93.8007 268.235 -118.265 273.385 -144.146 283.429C-293.766 341.629 -403.599 529.234 -394.329 710.529C-389.693 801.563 -345.399 890.795 -269.559 961.871C-193.719 1032.95 -92.3843 1080.07 -5.34186 1084.84C7.14798 1085.48 19.6378 1085.87 31.8701 1085.87C115.436 1085.87 232.609 1070.03 317.591 994.705C339.481 975.391 360.469 951.441 381.843 921.569C417.252 871.996 434.12 829.247 433.476 790.876C432.575 743.234 395.363 707.053 360.855 689.026Z" fill="#FC5050"/>
<path fill-rule="evenodd" clip-rule="evenodd" d="M-249.987 297.848C-285.267 330.167 -315.655 367.379 -340.119 408.582C-366.258 451.846 -386.087 498.458 -399.221 547.258C-419.05 620.523 -422.913 690.183 -410.423 754.048C-398.577 814.952 -371.537 872.895 -330.205 926.331C-313.852 947.319 -295.697 967.148 -276.383 985.432C-243.935 1015.82 -207.624 1042.22 -168.867 1063.98C-149.038 1075.05 -128.179 1084.84 -107.062 1093.21C-86.8469 1101.19 -65.8587 1107.76 -44.6132 1112.65C-26.0716 1116.9 -7.14374 1119.86 11.7842 1121.15L16.5483 1121.4C29.9395 1122.05 43.3307 1122.43 56.4644 1122.43H56.8506C75.1347 1122.43 93.1613 1121.79 110.544 1120.5C142.477 1118.19 174.41 1113.29 205.57 1105.82C273.813 1089.34 331.241 1060.63 376.436 1020.58C400.901 998.952 424.335 972.17 448.285 938.821C466.183 913.841 479.574 891.05 489.102 869.161C501.206 841.477 507.129 814.952 506.613 790.359C506.356 777.354 503.781 764.607 499.145 752.503C494.51 740.657 488.201 729.584 480.475 719.54C465.667 700.355 445.323 683.874 421.76 671.77C390.388 655.636 355.577 649.307 321.76 643.159L321.109 643.04C251.992 630.427 180.568 617.392 128.957 522.407C118.27 502.707 115.824 484.165 114.922 467.169C114.665 462.533 114.407 457.898 114.278 453.005C112.862 418.111 111.059 374.59 81.959 305.574C72.6881 283.684 60.7135 265.014 46.1635 250.078C32.1285 235.528 14.7458 224.197 -4.18219 217.243C-19.891 211.578 -36.8874 208.616 -54.914 208.616C-58.7768 208.616 -62.7686 208.745 -66.7602 209.003C-89.5509 210.548 -113.886 216.471 -139.123 226.772C-178.009 242.352 -215.221 266.301 -249.987 297.848ZM418.283 678.594C456.654 698.166 497.987 737.953 499.017 790.488C499.789 832.593 481.248 879.719 442.104 934.314C418.541 967.148 395.493 993.544 371.414 1014.79C278.191 1097.33 149.173 1114.71 57.3655 1114.71C44.1031 1114.71 30.5833 1114.32 17.0634 1113.68C-78.091 1108.79 -188.696 1057.28 -271.747 979.38C-355.571 900.707 -404.242 802.205 -408.878 702.029C-417.634 505.025 -297.886 299.264 -136.291 233.725C-107.963 222.265 -80.795 216.471 -55.6866 216.471C-19.376 216.471 11.6554 228.317 36.5063 251.623C52.2152 266.301 65.0913 285.487 74.7484 308.406C101.274 371.242 104.879 411.415 106.553 453.649L106.682 455.451C107.583 477.727 108.613 500.775 122.262 526.013C175.569 624.257 248.834 637.648 319.652 650.525C354.547 656.834 387.638 662.886 418.283 678.594Z" fill="#FC5050"/>
<path fill-rule="evenodd" clip-rule="evenodd" d="M-250.887 255.357C-287.841 289.478 -320.547 330.038 -348.102 375.877C-376.171 422.746 -397.675 473.349 -411.967 526.141C-426.775 580.736 -433.213 637.262 -431.024 693.788C-429.35 737.181 -420.208 780.444 -403.855 822.163C-388.146 862.336 -365.871 901.222 -337.543 937.919C-319.645 960.967 -299.816 982.857 -278.442 1002.82C-243.29 1035.78 -204.147 1064.23 -162.042 1087.8C-140.539 1099.77 -117.877 1110.46 -94.9579 1119.6C-72.9397 1128.23 -50.149 1135.31 -27.2296 1140.72C-5.46898 1145.74 16.8067 1148.96 39.0824 1150.12C53.3749 1150.89 67.6673 1151.15 81.7023 1151.15H81.9598C102.176 1151.15 122.134 1150.38 141.319 1148.96C176.085 1146.38 210.85 1141.11 244.714 1132.99C319.01 1114.97 381.459 1083.81 430.517 1040.41C457.17 1016.85 482.794 987.75 508.803 951.439C528.375 924.142 542.925 899.42 553.226 875.728C559.278 862.208 564.042 848.044 567.518 833.623C570.995 819.33 572.54 804.651 572.411 789.844C572.154 775.68 569.321 761.903 564.171 748.64C559.149 735.764 552.196 723.79 543.698 712.845C527.474 691.986 505.198 674.088 479.317 661.083C445.043 643.818 407.211 637.096 370.491 630.571L369.519 630.398C294.005 617.019 215.816 603.167 159.346 498.973C148.401 478.757 145.44 460.087 144.41 438.197C144.268 435.443 144.166 432.65 144.059 429.754C143.972 427.371 143.882 424.918 143.766 422.36V422.231C142.478 384.118 140.804 336.734 109.387 261.409C99.8576 238.489 87.4966 218.917 72.5603 203.08C58.2678 187.628 40.37 175.267 20.9271 167.155C2.64297 159.687 -17.4437 155.824 -38.8181 155.824C-42.2946 155.824 -45.8999 155.953 -49.3765 156.082C-75.2575 157.498 -102.94 164.451 -131.525 176.426C-173.244 194.453 -213.417 220.849 -250.887 255.357ZM-37.1442 164.065C-18.0876 164.065 0.453972 167.67 18.0943 174.752C33.6744 181.19 47.8381 190.332 60.0704 201.921C77.4532 218.274 91.7456 239.39 102.305 264.756C133.146 338.647 134.746 385.22 136.032 422.651L136.04 422.875V423.261L136.066 423.962C137.084 451.735 137.965 475.766 152.521 502.836C210.809 610.275 290.569 624.366 367.775 638.006L367.939 638.035C406.052 644.73 442.105 651.168 475.841 668.036C518.074 689.282 563.527 732.417 564.686 789.973C565.587 835.94 545.243 887.316 502.494 946.932C476.742 982.857 451.505 1011.57 425.366 1034.62C323.645 1124.5 182.78 1143.42 82.3461 1143.42C68.3111 1143.42 53.7611 1143.04 39.4687 1142.39C-63.669 1137.24 -183.802 1081.49 -273.935 996.892C-335.097 939.593 -379.906 871.35 -403.855 799.63C-415.315 765.379 -421.882 729.584 -423.427 693.531C-432.183 477.212 -305.353 258.19 -128.564 184.023C-97.018 170.761 -66.7592 164.065 -38.6893 164.065H-37.1442Z" fill="#FC5050"/>
<path fill-rule="evenodd" clip-rule="evenodd" d="M628.936 744.906C623.4 731 615.932 717.996 606.661 706.279C589.021 683.746 564.813 664.56 536.744 650.654C519.876 642.285 500.819 635.589 478.415 630.052C458.735 625.165 438.156 621.69 418.346 618.346L418.283 618.336L418.105 618.305C335.882 604.279 250.978 589.797 189.732 476.054C174.869 448.377 174.159 423.632 173.264 392.43L173.251 391.972L173.248 391.875C172.09 350.688 170.649 299.458 136.94 218.017C126.64 193.295 113.248 171.921 97.2814 154.795C81.8301 138.056 62.3872 124.665 41.2703 115.909C21.6986 108.055 0.324404 104.062 -22.3376 104.062C-26.458 104.062 -30.7071 104.192 -34.9562 104.45C-63.0261 106.252 -92.8987 113.849 -123.801 127.24C-146.849 137.284 -169.125 149.516 -189.984 163.551C-211.745 178.23 -232.475 194.841 -251.66 212.739C-271.618 231.409 -290.418 251.753 -307.414 273.128C-325.054 295.275 -341.278 318.838 -355.828 343.045C-385.83 393.777 -408.878 448.241 -424.329 505.024C-440.424 563.74 -447.635 624.388 -445.703 685.292C-442.356 780.446 -405.401 874.7 -338.574 957.75C-320.805 979.897 -301.233 1001.01 -280.503 1020.46L-270.46 1029.73C-246.124 1051.49 -219.985 1071.57 -192.559 1089.47C-165.906 1106.85 -137.707 1122.31 -108.736 1135.31C-81.0527 1147.8 -52.2102 1158.1 -22.7239 1165.7C4.83103 1172.91 33.1584 1177.29 61.6146 1178.83C76.8084 1179.6 92.0022 1179.99 106.939 1179.99C129.086 1179.99 150.975 1179.22 171.963 1177.54C209.433 1174.84 247.031 1168.92 283.728 1160.29C363.946 1140.85 431.546 1107.24 484.467 1060.37C513.18 1035.01 540.993 1003.46 569.191 964.06C590.308 934.573 606.146 907.79 617.348 882.167C623.786 867.488 629.065 852.294 632.799 836.714C636.533 821.263 638.207 805.295 638.079 789.458C637.564 774.135 634.602 759.199 628.936 744.906ZM-20.7925 111.789C-0.448191 111.789 19.381 115.652 38.1801 123.12C55.1766 130.073 70.6279 139.987 83.8903 152.605C102.819 170.374 118.141 193.296 129.601 220.98C162.821 301.068 164.238 351.671 165.268 392.231C166.169 424.679 166.942 450.301 182.651 479.787C210.978 532.451 246.645 569.019 291.711 591.552C331.295 611.472 373.918 618.729 415.185 625.755L416.223 625.932L417.66 626.177C458.462 633.167 497.12 639.79 533.009 657.607C578.977 680.398 628.679 727.009 629.967 789.586C630.997 839.417 608.979 895.044 562.625 959.682C534.683 998.568 507.386 1029.6 479.059 1054.71C368.968 1152.05 216 1172.39 107.068 1172.39C92.131 1172.39 76.8084 1172.01 61.4859 1171.24C-51.4376 1165.7 -177.108 1107.88 -274.709 1016.34C-375.786 921.182 -433.857 803.495 -437.978 685.034C-445.961 452.492 -309.603 215.698 -120.71 134.193C-86.2031 119.385 -53.1115 111.789 -22.3376 111.789H-20.7925Z" fill="#FC5050"/>
</mask>
<g mask="url(#mask1_1105_22259)">
<g filter="url(#filter0_f_1105_22259)">
<path d="M178.765 99.6824C-125.844 91.5197 -379.395 331.836 -387.558 636.445C-395.721 941.054 -155.404 1194.61 149.205 1202.77C453.814 1210.93 707.365 970.614 715.528 666.005C723.691 361.396 483.374 107.845 178.765 99.6824Z" fill="#0B5EFF"/>
<path d="M-149.05 652.497C-264.567 649.401 -360.721 740.537 -363.817 856.054C-366.912 971.571 -275.776 1067.73 -160.26 1070.82C-44.7426 1073.92 51.4118 982.78 54.5073 867.263C57.6028 751.746 -33.5327 655.593 -149.05 652.497Z" fill="#4200FF"/>
<path d="M143.858 489.034C69.5726 487.043 7.73815 545.65 5.74749 619.936C3.75683 694.222 62.3638 756.056 136.65 758.047C210.936 760.038 272.77 701.431 274.761 627.145C276.751 552.859 218.144 491.024 143.858 489.034Z" fill="#4200FF"/>
<path d="M-59.9379 595.633C-134.224 593.642 -196.058 652.249 -198.049 726.535C-200.039 800.821 -141.432 862.656 -67.1467 864.647C7.13927 866.637 68.9737 808.03 70.9644 733.744C72.955 659.458 14.3481 597.624 -59.9379 595.633Z" fill="#FF20B9"/>
<path d="M2.56017 378.335C-71.7259 376.345 -133.56 434.952 -135.551 509.238C-137.541 583.524 -78.9347 645.358 -4.64865 647.349C69.6373 649.339 131.472 590.732 133.463 516.446C135.453 442.16 76.8461 380.326 2.56017 378.335Z" fill="#494949"/>
<path d="M73.673 704.835C-0.612953 702.845 -62.4475 761.452 -64.4381 835.738C-66.4288 910.024 -7.82176 971.858 66.4642 973.849C140.75 975.839 202.584 917.232 204.575 842.946C206.566 768.66 147.959 706.826 73.673 704.835Z" fill="#494949"/>
<path d="M282.512 674.366C203.605 672.252 137.924 734.504 135.81 813.411C133.695 892.318 195.948 957.999 274.855 960.114C353.762 962.228 419.443 899.976 421.557 821.069C423.672 742.162 361.419 676.481 282.512 674.366Z" fill="#494949"/>
<path d="M259.476 188.145C153.556 185.307 65.39 268.871 62.5517 374.791C59.7133 480.711 143.277 568.877 249.197 571.715C355.117 574.554 443.283 490.989 446.122 385.069C448.96 279.149 365.396 190.983 259.476 188.145Z" fill="#494949"/>
<path d="M569.066 700.078C463.146 697.24 374.98 780.804 372.141 886.724C369.303 992.644 452.867 1080.81 558.787 1083.65C664.707 1086.49 752.873 1002.92 755.712 897.003C758.55 791.083 674.986 702.917 569.066 700.078Z" fill="#494949"/>
<path d="M522.449 709.133C411.553 706.161 319.245 793.651 316.273 904.547C313.302 1015.44 400.792 1107.75 511.688 1110.72C622.583 1113.7 714.891 1026.21 717.863 915.309C720.835 804.413 633.345 712.105 522.449 709.133Z" fill="#494949"/>
</g>
<g style="mix-blend-mode:color">
<path d="M1242.42 -218.133H-535.392V1165.56H1242.42V-218.133Z" fill="url(#paint0_linear_1105_22259)" fill-opacity="0.9"/>
</g>
</g>
<mask id="mask2_1105_22259" style="mask-type:alpha" maskUnits="userSpaceOnUse" x="1142" y="-1046" width="1793" height="1645">
<path fill-rule="evenodd" clip-rule="evenodd" d="M1739.79 -205.248C1733.56 -229.498 1733.87 -256.577 1741.06 -284.151C1754.07 -334.343 1786.5 -380.56 1832.17 -414.664C1874.78 -446.061 1926.28 -464.449 1973.01 -465.362C1997.48 -465.71 2022.25 -463.976 2046.25 -462.039C2064.18 -460.633 2084.25 -459.263 2102.98 -458.882C2143.1 -458.292 2179.27 -440.176 2207.41 -406.681C2228.07 -381.979 2244.57 -348.604 2254.76 -310.568C2266.85 -265.479 2269.64 -215.743 2262.37 -170.329C2255.12 -123.84 2229.14 -77.7322 2189.41 -40.6279C2154.91 -8.16618 2112.64 13.4198 2079.41 16.3825C2069.37 17.184 2059.36 16.0873 2049.51 13.5961C2030.82 8.34376 2014.01 -2.00045 2000.56 -15.9436C1974.08 -42.476 1940.83 -57.2749 1902.38 -74.3861L1900.2 -75.3572C1865.07 -91.0097 1825.31 -108.721 1784.49 -139.201C1762.97 -155.033 1747.08 -178.044 1740.13 -203.989L1739.79 -205.248ZM2245.26 -307.751C2235.47 -344.276 2219.63 -376.207 2199.81 -399.784L2198.2 -401.781C2179.68 -423.546 2157.49 -437.849 2132.77 -444.454C2123.17 -447.013 2113.34 -448.429 2103.35 -448.451C2084.37 -448.764 2064.79 -450.269 2046.05 -451.725C2022.04 -453.662 1997.78 -455.531 1973.63 -454.998C1887.94 -453.367 1778.36 -386.748 1751.16 -281.727C1744.2 -255.295 1743.86 -230.367 1749.87 -207.948C1756.41 -183.515 1770.62 -162.752 1790.86 -147.658C1831.25 -117.542 1870.99 -99.8805 1906.17 -84.2439L1906.42 -84.1323L1908.31 -83.288C1947.09 -65.9067 1980.73 -50.8316 2008.09 -23.092C2028.81 -2.18632 2053.72 8.14846 2078.54 6.08615C2109.68 3.41159 2149.44 -17.4995 2182.51 -48.2293C2220.75 -83.8535 2245.44 -127.725 2252.48 -171.997C2259.5 -217.344 2257.21 -263.166 2245.26 -307.751Z" fill="url(#paint1_linear_1105_22259)"/>
<path fill-rule="evenodd" clip-rule="evenodd" d="M2136.77 -522.201C2111.41 -522.154 2085 -523.987 2059.35 -526.023C2057.07 -526.179 2054.79 -526.336 2052.51 -526.495C2025.78 -528.346 1998.39 -530.243 1971.42 -529.731C1912.61 -528.552 1848.17 -505.075 1794.56 -465.333C1736.89 -422.614 1695.62 -364.039 1678.1 -300.488C1669.1 -267.569 1667.31 -234.962 1673.24 -205.774L1673.17 -206.026L1674.6 -199.661L1676.16 -193.867C1684.66 -162.129 1703.79 -134.049 1729.87 -114.308C1784.63 -72.5696 1837.91 -49.2304 1884.98 -28.6075L1886.37 -28.0011C1934.03 -7.29561 1975.01 10.6126 2008.94 42.5557C2025.73 58.8466 2046.55 71.0843 2069.31 77.4069C2082.14 80.9863 2095.38 82.0287 2108.52 80.6691C2149.75 76.3699 2201.91 48.3552 2244.68 7.46771C2293.93 -39.4749 2326.09 -97.7695 2335.73 -156.508C2344.37 -210.928 2342.55 -266.057 2330.83 -319.881C2329.4 -326.246 2327.89 -332.863 2326.21 -339.16C2313.31 -387.272 2292.69 -428.99 2266.36 -459.733C2231.07 -500.762 2186.43 -522.278 2136.77 -522.201ZM2136.89 -511.703C2150.36 -511.803 2163.8 -510.005 2176.82 -506.745C2207.32 -498.718 2234.89 -480.458 2258.19 -452.954C2283.74 -423.083 2303.85 -382.305 2316.4 -335.453C2331.74 -277.198 2334.77 -217.535 2325.33 -158.041C2316.23 -101.337 2284.85 -45.1419 2237.35 0.253357C2196.07 39.6608 2146.3 66.4967 2107.4 70.4404C2076.14 73.6863 2043.85 61.0087 2016.09 34.9712C1981.3 2.49802 1940.11 -15.6601 1892.59 -36.6065L1890.57 -37.4972C1843.8 -57.9014 1790.59 -81.1703 1736.06 -122.446C1711.33 -141.197 1694.06 -167.348 1685.83 -198.079C1677.73 -228.306 1678.48 -262.793 1688.26 -297.812C1725.76 -433.939 1861.88 -517.387 1971.78 -519.299C2000.81 -519.788 2030.51 -517.757 2059.14 -515.708C2084.54 -513.605 2110.95 -511.772 2136.89 -511.703Z" fill="url(#paint2_linear_1105_22259)"/>
<path fill-rule="evenodd" clip-rule="evenodd" d="M1608.19 -195.634C1600.35 -232.95 1602.69 -274.613 1614.7 -316.438C1636.68 -393.601 1686.79 -464.533 1756.2 -515.8C1820.8 -563.886 1898.51 -592.267 1969.39 -593.713C2002.4 -594.328 2035.69 -592.079 2068 -589.896C2069.61 -589.787 2071.22 -589.678 2072.83 -589.57C2073.95 -589.493 2075.08 -589.417 2076.21 -589.34C2077.49 -589.253 2078.76 -589.166 2080.04 -589.078L2080.08 -589.076C2109.95 -587.036 2140.48 -584.951 2170.31 -585.453C2200.16 -585.892 2230 -579.309 2256.73 -566.222C2282.95 -553 2305.65 -534.784 2324.62 -512.331C2356.43 -475.228 2381.5 -424.981 2397.1 -366.794C2399.26 -358.734 2401.41 -350.673 2403.14 -342.226C2417.09 -276.041 2418.92 -208.767 2408.4 -142.233C2396.69 -71.0629 2358.02 -0.766533 2299.33 56.2663C2248.61 105.765 2186.5 139.956 2137.25 145.592C2121.03 147.51 2104.75 146.202 2088.74 141.854C2063.77 135.316 2038.99 121.436 2016.96 101.691C1975.85 64.7983 1927.22 43.8743 1870.99 19.6807L1870.46 19.454C1811.27 -5.99152 1744.11 -34.972 1674.7 -88.4583C1643.82 -112.039 1621.37 -145.44 1611.38 -182.72L1610.77 -184.987C1610.4 -186.373 1610.11 -187.712 1609.82 -189.051C1609.53 -190.391 1609.24 -191.73 1608.86 -193.115L1608.19 -195.634ZM2398.19 -144.086C2409.79 -217.659 2405.95 -291.415 2386.9 -363.523C2371.45 -421.207 2347.22 -470.329 2316.77 -505.367C2288.64 -537.787 2256.21 -559.066 2220.12 -568.832C2203.85 -573.113 2187.12 -575.109 2170.17 -574.887C2140.27 -574.558 2109.74 -576.565 2079.84 -578.53L2079.77 -578.535C2077.13 -578.708 2074.5 -578.882 2071.86 -579.053C2070.37 -579.157 2068.87 -579.262 2067.37 -579.367C2035.21 -581.621 2002.07 -583.943 1969.51 -583.214C1837.09 -580.67 1671.87 -478.894 1625 -313.258C1612.33 -268.829 1610.98 -225.538 1621.17 -187.503C1631.02 -150.726 1651.86 -119.322 1681.14 -96.6635C1749.78 -44.0498 1816.05 -15.3706 1874.6 9.70618C1931.95 34.2972 1981.39 55.6053 2023.97 93.6021C2058.78 124.772 2098.63 139.474 2136.06 135.112C2225.84 124.556 2372.7 10.689 2398.19 -144.086Z" fill="url(#paint3_linear_1105_22259)"/>
<path fill-rule="evenodd" clip-rule="evenodd" d="M1551.73 -332.773C1565.67 -380.514 1587.5 -424.971 1616.75 -464.935C1673.09 -541.854 1750.1 -600.018 1839.43 -633.402C1880.42 -648.704 1923.48 -657.272 1967.17 -658.45C2006.44 -658.984 2046.52 -656.495 2085.03 -653.854L2085.28 -653.921C2124.1 -651.095 2164.51 -648.422 2203.39 -649.393C2237.98 -650.291 2272.89 -642.908 2303.96 -627.743C2334.51 -612.442 2361 -591.191 2383.07 -565.247C2420.54 -522.104 2449.81 -463.262 2468.1 -394.999C2470.73 -385.175 2473.18 -375.032 2475.38 -364.821C2491.68 -286.847 2493.84 -207.243 2481.19 -128.528C2467.09 -45.1078 2422.05 37.6939 2354.1 104.497C2325.48 132.685 2293.37 156.946 2258.47 176.827C2226.01 194.705 2194 206.25 2166.04 209.694C2146.4 211.985 2126.83 210.48 2107.89 205.295C2079.11 197.619 2051.27 182.4 2024.96 159.754C1976.43 118.357 1920.21 94.3365 1855.17 66.5512L1852.56 65.4347C1782.04 35.2911 1702.4 1.25088 1619.59 -63.4281C1584.21 -90.666 1558.51 -129.137 1546.97 -172.211L1546.16 -175.234C1545.08 -179.264 1544.07 -183.042 1543.24 -187.14L1542.68 -190.23C1534.1 -234.365 1537.13 -283.504 1551.73 -332.773ZM2084.32 -643.404C2045.81 -646.046 2006.23 -648.67 1967.28 -647.951C1812.54 -645.095 1618.46 -525.058 1561.21 -329.644C1545.35 -275.988 1543.52 -223.391 1555.73 -177.798C1567.27 -134.725 1591.42 -97.9986 1625.45 -71.7502C1707.83 -7.62077 1787.49 26.3253 1857.78 56.2777L1858.25 56.4772C1921.89 83.4292 1981.66 108.991 2031.47 151.8C2073.5 187.782 2120.73 204.826 2164.6 199.28C2219.45 192.412 2289.13 153.222 2346.63 96.7793C2413.09 31.4556 2457.09 -49.1779 2470.65 -130.565C2484.74 -218.033 2480.35 -305.95 2457.66 -391.66C2439.5 -459.419 2411.08 -517.137 2375.08 -558.787L2373.53 -560.532C2341.6 -597.064 2304.38 -621.108 2263.08 -632.179C2243.64 -637.229 2223.55 -639.674 2203.44 -639.146C2164.3 -638.108 2123.65 -640.713 2084.57 -643.472L2084.32 -643.404Z" fill="url(#paint4_linear_1105_22259)"/>
<path fill-rule="evenodd" clip-rule="evenodd" d="M2236.8 -713.148C2276.19 -714.254 2315.67 -705.935 2351.25 -689.012C2384.35 -673.312 2414.73 -649.595 2441.95 -618.551C2484.84 -569.3 2518.62 -501.677 2539.61 -423.339C2542.72 -411.752 2545.7 -399.594 2548.12 -387.552C2566.82 -298.612 2569.27 -201.807 2554.54 -114.707C2538.38 -18.8552 2486.91 76.2 2409.44 152.843C2377.09 185.268 2340.31 213.214 2300.52 236.023C2263.49 257.015 2227.02 270.027 2195.21 274.231C2172.49 277.08 2149.87 275.31 2127.76 269.356C2121.34 267.566 2114.85 265.525 2108.23 262.979C2080.79 252.245 2055.67 237.106 2033.28 218C1977.33 171.435 1910.31 142.958 1839.08 112.908L1837.44 112.213C1755.02 77.3423 1661.9 37.9442 1564.79 -38.2172C1524.92 -69.1117 1495.59 -113.087 1482.56 -161.702L1481.69 -164.977C1480.27 -170.266 1479.04 -175.876 1477.87 -181.233L1477.6 -182.24C1467.63 -233.564 1471.41 -291.001 1488.59 -348.79C1504.75 -403.337 1530.21 -454.434 1563.78 -500.417C1628.4 -588.735 1716.59 -655.563 1818.86 -694.036C1865.62 -711.965 1914.87 -721.649 1965.01 -722.935C2009.59 -723.812 2054.93 -720.842 2098.63 -717.972C2144.29 -714.818 2191.27 -711.75 2236.8 -713.148ZM2306.5 -694.838C2283.88 -700.656 2260.49 -703.299 2237.16 -702.717C2191.07 -701.435 2143.58 -704.369 2097.98 -707.271C2054.29 -710.141 2009.27 -712.926 1965.19 -712.185C1788.19 -708.764 1565.19 -570.719 1498.57 -345.796C1479.76 -282.982 1477.39 -221.329 1491.69 -167.928C1504.86 -118.809 1532.32 -76.7637 1570.91 -46.6068C1667.39 29.323 1760.53 68.6201 1842.71 103.295L1844.44 104.027C1915.67 134.173 1982.89 162.624 2039.53 210.114C2088.61 251.227 2143.4 270.295 2193.45 263.633C2256.38 255.68 2336.02 210.313 2401.72 145.192C2477.7 70.0294 2528.06 -23.1096 2543.76 -116.677C2560.33 -218.04 2555.39 -320.116 2529.05 -419.429C2508.13 -497.516 2475.19 -564.014 2433.77 -611.772L2432.23 -613.517C2395.73 -655.032 2353.33 -682.278 2306.5 -694.838Z" fill="url(#paint5_linear_1105_22259)"/>
<path fill-rule="evenodd" clip-rule="evenodd" d="M2112.29 -781.838L2112.04 -781.77C2063.15 -784.87 2012.62 -788.068 1962.91 -787.169C1909.23 -786.013 1853.81 -775.212 1798.3 -754.669C1742.1 -733.671 1689.39 -704.698 1641.29 -668.592C1591.37 -631.19 1547.4 -586.74 1510.74 -536.15C1472.84 -484.148 1443.95 -426.731 1425.37 -365.059C1405.9 -300.716 1401.22 -236.558 1411.8 -178.92L1412.57 -175.074C1413.95 -167.886 1415.59 -160.765 1417.41 -153.964C1432.8 -96.5331 1463.83 -49.233 1509.67 -13.1887C1621.28 74.8849 1728.37 119.894 1822.91 159.357L1823.23 159.491C1902.81 192.892 1978.12 224.502 2041.09 276.381C2066.5 297.65 2095.06 314.566 2126 326.254C2132.87 328.732 2139.99 331.142 2146.92 332.797C2172.02 339.839 2198.11 341.487 2223.93 338.08C2259.65 333.367 2300.45 318.385 2341.93 294.851C2386.6 269.114 2427.75 237.299 2464.14 200.82C2551.05 114.088 2609.03 7.03052 2627.01 -101.188C2643.69 -200.149 2641.27 -309.922 2619.97 -410.585C2617.08 -424.389 2613.62 -438.311 2610.04 -451.661C2586.29 -540.327 2548.13 -616.226 2500.07 -671.653C2470.01 -706.254 2435.91 -732.755 2398.8 -750.348C2358.88 -769.35 2314.33 -778.468 2270.27 -776.652C2219.58 -774.877 2167.26 -778.272 2116.69 -781.553L2112.29 -781.838ZM2492.22 -664.689C2539.05 -610.823 2576.43 -535.796 2600.12 -447.382C2629.92 -334.148 2635.61 -218.231 2616.61 -102.72C2598.85 3.27997 2541.98 108.421 2456.56 193.673C2382.84 267.153 2292.99 318.763 2222.37 328.238C2149.98 338.185 2087.43 301.22 2047.66 268.679C1983.88 216.249 1908.72 184.611 1829.24 151.153L1826.93 150.18C1732.96 110.834 1626.76 66.1266 1515.92 -21.0745C1472.53 -55.0725 1441.75 -102.44 1426.9 -157.856C1410.5 -219.066 1413.49 -289.521 1435.17 -361.745C1511.85 -616.632 1763.7 -772.938 1963.03 -776.67C2012.16 -777.687 2062.69 -774.488 2111.33 -771.321L2111.58 -771.389L2116.09 -771.104C2166.87 -767.89 2219.41 -764.566 2270.31 -766.405C2297.05 -767.361 2323.73 -764.52 2349.59 -757.681C2402.2 -743.7 2449.6 -712.932 2490.74 -666.182L2492.22 -664.689Z" fill="url(#paint6_linear_1105_22259)"/>
<path fill-rule="evenodd" clip-rule="evenodd" d="M2125.45 -845.569L2124.88 -845.686C2071.05 -849.082 2015.33 -852.51 1960.75 -851.655C1900.87 -850.458 1839.34 -838.289 1777.41 -815.487C1714.87 -791.979 1656.26 -759.808 1603.11 -719.378C1547.58 -677.77 1498.82 -627.989 1457.95 -571.951C1415.65 -514.182 1383.46 -449.941 1362.41 -381.396C1340.29 -308.785 1334.87 -236.328 1346.84 -171.501L1347.19 -169.167C1348.85 -160.971 1350.57 -152.524 1352.73 -144.463L1353 -143.456C1359.82 -118.015 1369.91 -93.4517 1383.08 -70.5212C1401.64 -38.5093 1425.83 -10.7038 1454.87 12.023C1580.43 111.315 1700.95 161.597 1807.24 205.945L1807.63 206.108C1895.79 242.958 1979.12 277.866 2049.41 334.627C2077.82 358.06 2109.51 376.567 2144.08 389.712C2151.52 392.307 2158.97 394.902 2166.46 396.673C2194.74 404.484 2223.87 406.398 2253.1 402.617C2292.67 397.144 2337.87 380.443 2383.73 354.115C2433.22 325.197 2478.8 289.765 2519.17 248.982C2615.59 152.411 2679.68 32.9154 2700.12 -87.3C2718.81 -197.87 2716.18 -320.544 2692.46 -433.248C2689.03 -449.068 2685.42 -464.569 2681.37 -479.682C2654.91 -578.424 2612.5 -663.17 2558.77 -724.637C2525.29 -762.914 2487.48 -792.198 2446.35 -811.685C2402.17 -832.513 2352.78 -842.499 2303.92 -840.475C2244.88 -838.153 2184.21 -841.877 2125.45 -845.569ZM2550.6 -717.858C2603.1 -657.951 2644.74 -574.078 2671.2 -475.336C2704.64 -348.499 2710.88 -218.422 2689.65 -89.085C2669.75 29.0971 2606.44 146.492 2511.51 241.583C2429.59 323.74 2330.04 381.46 2251.41 392.271C2171.01 403.555 2100.67 362.736 2055.85 326.421C1984.22 268.671 1900.25 233.395 1811.19 196.243L1810.74 196.053C1705.35 152.013 1585.76 102.032 1461.24 3.56598C1413.29 -34.3406 1379.01 -86.7098 1362.47 -148.422C1344.05 -217.189 1347.51 -296.951 1372.39 -378.401C1458.51 -662.545 1739.29 -836.859 1960.87 -841.156C2015.38 -842.263 2070.85 -838.768 2124.99 -835.188L2127.23 -835.047C2185.3 -831.397 2245.49 -827.614 2304.1 -829.724C2334.25 -831.054 2364.29 -827.764 2393.39 -819.903C2451.79 -804.502 2504.74 -770.096 2550.6 -717.858Z" fill="url(#paint7_linear_1105_22259)"/>
<path fill-rule="evenodd" clip-rule="evenodd" d="M1756.85 -876.121C1687.89 -850.354 1623.46 -814.732 1564.94 -770.164C1503.84 -724.097 1449.92 -669.422 1404.91 -607.685C1358.29 -543.897 1322.73 -473.084 1299.26 -397.413C1274.5 -316.534 1268.33 -235.778 1281.44 -163.696L1281.64 -162.94C1283.45 -153.166 1285.76 -143.526 1288.19 -134.458L1288.46 -133.451C1295.88 -105.743 1306.77 -79.2306 1320.98 -54.42C1341.24 -19.0841 1367.82 11.5911 1399.68 36.8007C1539.63 147.579 1673.16 203.272 1791.27 252.532L1792.07 252.863C1888.6 293.068 1979.65 330.993 2057.4 392.688C2091.13 419.827 2126.2 439.859 2162.03 452.667C2169.79 455.446 2177.74 457.906 2185.62 460.114C2217.08 468.694 2249.5 470.805 2281.82 466.466C2325.23 460.232 2374.83 441.812 2425.33 412.624C2479.7 380.777 2529.71 341.729 2574.05 296.64C2623.45 247.227 2665.71 191.356 2699.6 130.439C2735.73 66.765 2760.19 -2.15344 2773.02 -74.1658C2793.37 -195.709 2790.45 -331.535 2764.38 -456.029C2760.73 -473.679 2756.58 -491.195 2752.06 -508.072C2722.9 -616.889 2676.04 -710.163 2616.89 -777.739C2580.01 -819.69 2538.48 -851.758 2493.4 -872.887C2444.62 -895.725 2390.49 -906.327 2336.89 -903.843C2271.71 -901.229 2204.15 -905.532 2139.05 -909.688L2136.16 -909.865C2078.03 -913.437 2017.81 -917.137 1958.59 -916.14C1892.58 -914.65 1824.86 -901.366 1756.85 -876.121ZM2742.2 -503.541C2779.36 -362.851 2786.08 -218.865 2762.43 -75.3795C2740.22 55.3032 2670.73 184.883 2566.28 289.812C2476.34 380.327 2366.59 444.292 2280.01 456.692C2249.02 460.945 2217.99 459 2187.93 450.586C2146.05 439.399 2104.25 417.393 2063.66 384.802C1984.87 322.29 1893.15 283.993 1795.96 243.41L1795.32 243.143C1677.83 194.242 1544.9 138.917 1406.19 28.8472C1353.43 -12.9003 1316.08 -70.6581 1297.93 -138.418C1277.41 -214.993 1281.24 -303.49 1309.25 -394.418C1408.84 -719.969 1718.35 -900.903 1958.71 -905.642C2015.5 -906.718 2073.52 -903.224 2130.12 -899.815C2132.95 -899.645 2135.77 -899.475 2138.59 -899.306L2140.74 -899.171C2205.42 -895.124 2272.23 -890.945 2337.18 -893.664C2370.56 -895.048 2403.89 -891.56 2436.42 -882.999C2500.66 -865.924 2558.86 -828.064 2608.97 -771.027C2666.96 -704.76 2713.04 -612.358 2742.2 -503.541Z" fill="url(#paint8_linear_1105_22259)"/>
<path fill-rule="evenodd" clip-rule="evenodd" d="M2845.44 -59.8239C2832.61 16.2369 2805.54 91.5252 2765.51 163.806C2728.3 230.472 2682.33 291.656 2628.45 345.508C2578.57 396.13 2522.5 439.771 2466.43 472.343C2411.56 504.325 2357.63 524.716 2310.3 531.458C2274.89 536.355 2239.43 533.978 2204.73 524.378C2196.6 522.237 2188.01 519.409 2179.68 516.513C2140.86 502.617 2102.28 480.557 2065.29 451.322C1980.51 384.509 1881.01 343.188 1776.03 299.593L1773.18 298.404C1644.02 244.608 1497.65 183.638 1344.63 62.0797C1309.69 34.4549 1280.66 0.6581 1258.69 -38.0018C1243.69 -64.7601 1231.88 -93.7227 1223.92 -123.445L1223.58 -124.705C1220.74 -135.284 1218.35 -146.251 1216.2 -157.284L1216.13 -157.536C1201.71 -236.554 1208.51 -325.039 1235.98 -413.934C1261.6 -496.662 1300.6 -573.795 1351.55 -643.602C1400.89 -711.358 1459.66 -771.112 1526.37 -821.385C1590.26 -870.092 1660.84 -908.98 1735.89 -937.19C1810.07 -964.627 1884.15 -979.346 1956.11 -980.81C2021.37 -982.098 2087.8 -978.028 2152.07 -973.922C2223.76 -969.372 2297.91 -964.673 2369.97 -967.783C2428.37 -970.473 2487.33 -959.004 2540.38 -934.34C2589.47 -911.318 2634.97 -876.533 2675.02 -830.84C2739.83 -757.224 2790.89 -655.354 2822.81 -536.209C2827.87 -517.317 2832.5 -498.038 2836.62 -478.625C2865.29 -342.409 2868.17 -193.614 2845.44 -59.8239ZM2152 -963.104L2151.83 -965.758L2151.75 -963.037L2145.82 -963.393C2083.48 -967.14 2019.38 -970.992 1956.61 -969.875C1648.02 -963.862 1342.55 -723.534 1245.85 -410.368C1214.64 -310.213 1210.27 -212.661 1232.88 -128.277C1252.66 -54.4736 1293.57 8.53792 1350.89 54.1938C1503.36 175.331 1649.29 235.999 1778.1 289.553L1779.37 290.082L1780.27 290.454V290.455V290.456L1780.28 290.457C1885.94 334.27 1985.82 375.683 2071.54 443.436C2116.03 478.491 2161.6 502.458 2207.22 514.531C2240.46 523.714 2274.78 525.856 2308.86 521.045C2404.78 507.223 2521.48 438.966 2621.12 338.293C2735.01 223.274 2810.93 81.4397 2835.29 -61.4243C2861.24 -214.436 2853.5 -381.367 2813.34 -531.242C2781.42 -650.387 2730.82 -751.569 2667.49 -823.692L2666.71 -824.564C2612.41 -886.149 2549.42 -926.775 2479.91 -945.405C2444.2 -954.736 2407.51 -958.673 2370.72 -956.915C2298.34 -953.99 2223.94 -958.621 2152 -963.104Z" fill="url(#paint9_linear_1105_22259)"/>
<path fill-rule="evenodd" clip-rule="evenodd" d="M2507.98 531.675C2568.68 496.242 2629.37 448.664 2683.29 393.988C2741.51 335.192 2791.25 268.948 2831.6 196.852C2875.13 118.504 2904.24 36.7294 2918.29 -45.8672C2943.23 -191.588 2939.88 -353.216 2909.11 -501.288C2904.7 -522.785 2899.6 -543.827 2894.14 -564.23C2859.51 -693.45 2803.94 -804.101 2733.72 -883.825C2690.32 -932.941 2641.36 -970.577 2587.99 -995.425C2530.43 -1021.85 2466.65 -1034.18 2403.51 -1031.03C2325.06 -1027.56 2244.07 -1032.59 2165.8 -1037.54L2159.96 -1037.89C2092.61 -1041.93 2022.74 -1046.13 1954.34 -1044.86C1876.43 -1043.42 1795.99 -1027.27 1715.46 -997.32C1633.99 -966.852 1557.59 -924.513 1488.33 -871.667C1416.06 -816.936 1352.19 -752.036 1298.64 -678.832C1243.37 -603.006 1201 -519.301 1172.9 -429.699C1142.9 -333.107 1135.22 -236.828 1150.71 -150.806C1152.94 -138.445 1155.68 -126.22 1158.85 -114.381L1159.19 -113.121C1167.76 -81.1309 1180.36 -50.2206 1196.54 -21.0784C1220.28 21.1575 1251.63 57.5719 1289.65 87.6119C1457.76 221.292 1618.09 287.671 1759.89 346.329C1873.72 393.311 1981.25 437.933 2073.42 509.887C2113.99 541.402 2155.7 565.054 2197.76 579.971C2206.41 583.052 2215.5 585.745 2224.28 588.254C2261.9 598.692 2300.66 601.266 2339.4 595.743C2390.33 588.308 2448.66 566.199 2507.98 531.675ZM2337.71 585.398C2300.48 590.515 2263.18 588.359 2226.7 578.156C2177.26 564.945 2128 539.269 2079.54 501.497C1986.27 428.486 1878.17 383.748 1763.71 336.397L1762.86 336.048C1622.16 277.777 1462.77 211.765 1296.02 79.1548L1294.61 77.9136C1233.37 28.7178 1189.78 -39.2459 1168.52 -118.592C1143.89 -210.532 1148.8 -317.139 1182.89 -426.704C1288.37 -766.523 1620.13 -1027.66 1954.45 -1034.36C2021.72 -1035.8 2090.48 -1031.66 2157.05 -1027.65L2165.35 -1027.16C2243.87 -1022.28 2324.86 -1017.25 2403.87 -1020.6C2528.52 -1025.93 2637.07 -977.527 2725.86 -876.861C2794.86 -798.698 2849.66 -688.92 2884.42 -559.196C2928.15 -395.97 2936.58 -214.375 2908.07 -47.7196C2881.58 107.326 2799.29 261.665 2675.89 386.522C2568.04 495.873 2441.64 570.239 2337.71 585.398Z" fill="url(#paint10_linear_1105_22259)"/>
</mask>
<g mask="url(#mask2_1105_22259)">
<g filter="url(#filter1_f_1105_22259)">
<path d="M1660.25 557.186C2020.51 557.186 2312.56 265.139 2312.56 -95.1196C2312.56 -455.378 2020.51 -747.426 1660.25 -747.426C1299.99 -747.426 1007.94 -455.378 1007.94 -95.1196C1007.94 265.139 1299.99 557.186 1660.25 557.186Z" fill="#0F003A"/>
<path d="M1689.17 95.9301C1777.03 95.9301 1848.25 24.7072 1848.25 -63.1508C1848.25 -151.008 1777.03 -222.231 1689.17 -222.231C1601.31 -222.231 1530.09 -151.008 1530.09 -63.1508C1530.09 24.7072 1601.31 95.9301 1689.17 95.9301Z" fill="#0F003A"/>
<path d="M2054.52 123.331C2142.38 123.331 2213.6 52.1079 2213.6 -35.7501C2213.6 -123.608 2142.38 -194.831 2054.52 -194.831C1966.66 -194.831 1895.44 -123.608 1895.44 -35.7501C1895.44 52.1079 1966.66 123.331 2054.52 123.331Z" fill="#FF20B9"/>
<path d="M1859.67 222.281C1947.53 222.281 2018.75 151.058 2018.75 63.2001C2018.75 -24.6579 1947.53 -95.8809 1859.67 -95.8809C1771.81 -95.8809 1700.59 -24.6579 1700.59 63.2001C1700.59 151.058 1771.81 222.281 1859.67 222.281Z" fill="#792170"/>
<path d="M1562.06 455.193C1687.33 455.193 1788.88 353.641 1788.88 228.37C1788.88 103.099 1687.33 1.54688 1562.06 1.54688C1436.79 1.54688 1335.24 103.099 1335.24 228.37C1335.24 353.641 1436.79 455.193 1562.06 455.193Z" fill="#00B2FF"/>
</g>
<g filter="url(#filter2_f_1105_22259)">
</g>
<g opacity="0.1" filter="url(#filter3_f_1105_22259)">
<path d="M446.541 816.284C227.245 1165.99 -133.255 847.369 -385.713 466.573L-399.619 432.897C-385.713 407.857 -339.072 357.776 -263.763 357.776C-169.626 357.776 -96.8847 357.776 -2.74796 432.897C91.3886 508.019 115.993 466.573 218.687 526.154C321.382 585.734 360.962 565.01 425.146 559.829C476.493 555.685 607.001 323.236 665.836 166.083C788.143 96.141 1071.05 -111.613 1224.24 -51.5145C1415.72 23.6085 1774.08 466.573 2129.23 357.776C2484.39 248.978 2376.34 230.843 2649.12 163.491C2819.37 121.457 2871.34 158.671 2878.68 198.385C2890.08 179.758 2883.8 205.255 2877.05 227.193C2876.7 228.43 2876.32 229.647 2875.91 230.843C2876.29 229.643 2876.67 228.423 2877.05 227.193C2879.58 218.214 2880.5 208.223 2878.68 198.385C2875.08 204.281 2869.7 214.596 2862 230.843C2820.28 318.917 2426.62 593.505 2099.28 761.884C1771.94 930.263 1349.4 197.167 991.036 230.843C632.675 264.518 665.836 466.573 446.541 816.284Z" fill="#0587FF"/>
</g>
<g style="mix-blend-mode:color">
<path d="M2611.01 -800.514H-591.867V1117.65H2611.01V-800.514Z" fill="#0085FF"/>
</g>
<g style="mix-blend-mode:color">
<path d="M2288.45 -380.726H-21.9912V1002.96H2288.45V-380.726Z" fill="url(#paint11_linear_1105_22259)" fill-opacity="0.9"/>
</g>
</g>
</g>
</g>
<defs>
<filter id="filter0_f_1105_22259" x="-587.76" y="-100.52" width="1543.54" height="1503.49" filterUnits="userSpaceOnUse" color-interpolation-filters="sRGB">
<feFlood flood-opacity="0" result="BackgroundImageFix"/>
<feBlend mode="normal" in="SourceGraphic" in2="BackgroundImageFix" result="shape"/>
<feGaussianBlur stdDeviation="100" result="effect1_foregroundBlur_1105_22259"/>
</filter>
<filter id="filter1_f_1105_22259" x="807.94" y="-947.426" width="1704.62" height="1704.61" filterUnits="userSpaceOnUse" color-interpolation-filters="sRGB">
<feFlood flood-opacity="0" result="BackgroundImageFix"/>
<feBlend mode="normal" in="SourceGraphic" in2="BackgroundImageFix" result="shape"/>
<feGaussianBlur stdDeviation="100" result="effect1_foregroundBlur_1105_22259"/>
</filter>
<filter id="filter2_f_1105_22259" x="930.381" y="-1033.65" width="2371.54" height="1442.97" filterUnits="userSpaceOnUse" color-interpolation-filters="sRGB">
<feFlood flood-opacity="0" result="BackgroundImageFix"/>
<feBlend mode="normal" in="SourceGraphic" in2="BackgroundImageFix" result="shape"/>
<feGaussianBlur stdDeviation="211.988" result="effect1_foregroundBlur_1105_22259"/>
</filter>
<filter id="filter3_f_1105_22259" x="-515.619" y="-178.289" width="3516.59" height="1261.24" filterUnits="userSpaceOnUse" color-interpolation-filters="sRGB">
<feFlood flood-opacity="0" result="BackgroundImageFix"/>
<feBlend mode="normal" in="SourceGraphic" in2="BackgroundImageFix" result="shape"/>
<feGaussianBlur stdDeviation="58" result="effect1_foregroundBlur_1105_22259"/>
</filter>
<linearGradient id="paint0_linear_1105_22259" x1="-535.392" y1="-170.839" x2="167.628" y2="1593.76" gradientUnits="userSpaceOnUse">
<stop stop-color="#2D8D1E"/>
<stop offset="1" stop-color="#0096D9"/>
</linearGradient>
<linearGradient id="paint1_linear_1105_22259" x1="2503.35" y1="-108.413" x2="1572.76" y2="-361.735" gradientUnits="userSpaceOnUse">
<stop stop-color="#E9B49F"/>
<stop offset="0.091" stop-color="#E9B49F"/>
<stop offset="0.435" stop-color="#BC457F"/>
<stop offset="1" stop-color="#6F3FBF"/>
</linearGradient>
<linearGradient id="paint2_linear_1105_22259" x1="2503.35" y1="-108.413" x2="1572.76" y2="-361.735" gradientUnits="userSpaceOnUse">
<stop stop-color="#E9B49F"/>
<stop offset="0.091" stop-color="#E9B49F"/>
<stop offset="0.435" stop-color="#BC457F"/>
<stop offset="1" stop-color="#6F3FBF"/>
</linearGradient>
<linearGradient id="paint3_linear_1105_22259" x1="2503.35" y1="-108.413" x2="1572.76" y2="-361.735" gradientUnits="userSpaceOnUse">
<stop stop-color="#E9B49F"/>
<stop offset="0.091" stop-color="#E9B49F"/>
<stop offset="0.435" stop-color="#BC457F"/>
<stop offset="1" stop-color="#6F3FBF"/>
</linearGradient>
<linearGradient id="paint4_linear_1105_22259" x1="2503.35" y1="-108.413" x2="1572.76" y2="-361.735" gradientUnits="userSpaceOnUse">
<stop stop-color="#E9B49F"/>
<stop offset="0.091" stop-color="#E9B49F"/>
<stop offset="0.435" stop-color="#BC457F"/>
<stop offset="1" stop-color="#6F3FBF"/>
</linearGradient>
<linearGradient id="paint5_linear_1105_22259" x1="2503.35" y1="-108.413" x2="1572.76" y2="-361.735" gradientUnits="userSpaceOnUse">
<stop stop-color="#E9B49F"/>
<stop offset="0.091" stop-color="#E9B49F"/>
<stop offset="0.435" stop-color="#BC457F"/>
<stop offset="1" stop-color="#6F3FBF"/>
</linearGradient>
<linearGradient id="paint6_linear_1105_22259" x1="2503.35" y1="-108.413" x2="1572.76" y2="-361.735" gradientUnits="userSpaceOnUse">
<stop stop-color="#E9B49F"/>
<stop offset="0.091" stop-color="#E9B49F"/>
<stop offset="0.435" stop-color="#BC457F"/>
<stop offset="1" stop-color="#6F3FBF"/>
</linearGradient>
<linearGradient id="paint7_linear_1105_22259" x1="2503.35" y1="-108.413" x2="1572.76" y2="-361.735" gradientUnits="userSpaceOnUse">
<stop stop-color="#E9B49F"/>
<stop offset="0.091" stop-color="#E9B49F"/>
<stop offset="0.435" stop-color="#BC457F"/>
<stop offset="1" stop-color="#6F3FBF"/>
</linearGradient>
<linearGradient id="paint8_linear_1105_22259" x1="2503.35" y1="-108.413" x2="1572.76" y2="-361.735" gradientUnits="userSpaceOnUse">
<stop stop-color="#E9B49F"/>
<stop offset="0.091" stop-color="#E9B49F"/>
<stop offset="0.435" stop-color="#BC457F"/>
<stop offset="1" stop-color="#6F3FBF"/>
</linearGradient>
<linearGradient id="paint9_linear_1105_22259" x1="2503.35" y1="-108.413" x2="1572.76" y2="-361.735" gradientUnits="userSpaceOnUse">
<stop stop-color="#E9B49F"/>
<stop offset="0.091" stop-color="#E9B49F"/>
<stop offset="0.435" stop-color="#BC457F"/>
<stop offset="1" stop-color="#6F3FBF"/>
</linearGradient>
<linearGradient id="paint10_linear_1105_22259" x1="2503.35" y1="-108.413" x2="1572.76" y2="-361.735" gradientUnits="userSpaceOnUse">
<stop stop-color="#E9B49F"/>
<stop offset="0.091" stop-color="#E9B49F"/>
<stop offset="0.435" stop-color="#BC457F"/>
<stop offset="1" stop-color="#6F3FBF"/>
</linearGradient>
<linearGradient id="paint11_linear_1105_22259" x1="-21.9912" y1="-333.432" x2="550.976" y2="1535.6" gradientUnits="userSpaceOnUse">
<stop stop-color="#2D8D1E"/>
<stop offset="1" stop-color="#0096D9"/>
</linearGradient>
<clipPath id="clip0_1105_22259">
<rect width="1920" height="786" fill="white"/>
</clipPath>
</defs>
</svg>
